<svg xmlns="http://www.w3.org/2000/svg" xmlns:xlink="http://www.w3.org/1999/xlink" viewBox="0,0,256,256" width="80px" height="80px" fill-rule="nonzero"><defs><linearGradient x1="42.5" y1="11.479" x2="42.5" y2="50.036" gradientUnits="userSpaceOnUse" id="color-1"><stop offset="0" stop-color="#42446e"></stop><stop offset="1" stop-color="#42446e"></stop></linearGradient><linearGradient x1="24.5" y1="25.438" x2="24.5" y2="48.438" gradientUnits="userSpaceOnUse" id="color-2"><stop offset="0" stop-color="#42446e"></stop><stop offset="1" stop-color="#42446e"></stop></linearGradient><linearGradient x1="52" y1="21.332" x2="52" y2="41.69" gradientUnits="userSpaceOnUse" id="color-3"><stop offset="0" stop-color="#42446e"></stop><stop offset="1" stop-color="#42446e"></stop></linearGradient><linearGradient x1="25.003" y1="23.423" x2="25.003" y2="50.94" gradientUnits="userSpaceOnUse" id="color-4"><stop offset="0" stop-color="#42446e"></stop><stop offset="1" stop-color="#42446e"></stop></linearGradient><linearGradient x1="42.43" y1="9.916" x2="42.43" y2="56.5" gradientUnits="userSpaceOnUse" id="color-5"><stop offset="0" stop-color="#42446e"></stop><stop offset="1" stop-color="#42446e"></stop></linearGradient><linearGradient x1="51.845" y1="23.144" x2="52.395" y2="49.63" gradientUnits="userSpaceOnUse" id="color-6"><stop offset="0" stop-color="#42446e"></stop><stop offset="1" stop-color="#42446e"></stop></linearGradient><linearGradient x1="31.5" y1="4.342" x2="31.5" y2="59.342" gradientUnits="userSpaceOnUse" id="color-7"><stop offset="0" stop-color="#42446e"></stop><stop offset="1" stop-color="#42446e"></stop></linearGradient></defs><g fill="none" fill-rule="nonzero" stroke="none" stroke-width="1" stroke-linecap="butt" stroke-linejoin="miter" stroke-miterlimit="10" stroke-dasharray="" stroke-dashoffset="0" font-family="none" font-weight="none" font-size="none" text-anchor="none" style="mix-blend-mode: normal"><g transform="scale(4,4)"><path d="M26,23c6.487,18.162 19,27 19,27h6c-12,-13 -14,-24 -14,-24c0,0 7,-7 22,-8.811v-5.189c-23.351,0 -33,11 -33,11z" fill="url(#color-1)"></path><path d="M23.378,35.533l-10.378,2.595c5.189,6.486 13,11.872 13,11.872h10c-6,-5 -10,-10 -12.622,-14.467z" fill="url(#color-2)"></path><path d="M46,31c0,0 2.108,4.811 6,10l-1,-8c0,0 3.108,-2.656 7,-3.954v-5.189c0,0 -6.811,0.656 -12,7.143z" fill="url(#color-3)"></path><path d="M24.24,35.027l-0.379,-0.646l-12.616,3.154l0.974,1.217c5.222,6.526 12.89,11.847 13.214,12.07l0.255,0.178h13.073l-2.121,-1.769c-5.276,-4.396 -9.448,-9.175 -12.4,-14.204zM26.317,49c-1.269,-0.904 -7.082,-5.161 -11.529,-10.288l8.112,-2.028c2.635,4.324 6.131,8.456 10.418,12.316z" fill="url(#color-4)"></path><path d="M59,11c-23.534,0 -33.346,10.877 -33.752,11.341l-0.388,0.442l0.198,0.554c6.518,18.25 18.843,27.112 19.364,27.48l0.261,0.183h8.602l-1.55,-1.679c-10.168,-11.014 -13.052,-20.649 -13.631,-22.971c1.661,-1.422 8.521,-6.66 21.016,-8.168l0.88,-0.106v-7.076zM58,16.31c-14.564,1.988 -21.417,8.693 -21.707,8.983l-0.37,0.371l0.094,0.515c0.08,0.441 2.012,10.509 12.743,22.821h-3.429c-1.746,-1.328 -12.319,-9.861 -18.176,-25.749c2.001,-1.924 11.519,-9.974 30.845,-10.244z" fill="url(#color-5)"></path><path d="M45.219,30.375l-0.377,0.472l0.242,0.554c0.088,0.201 2.2,4.977 6.116,10.198l2.259,3.014l-1.397,-11.183c0.943,-0.728 3.396,-2.482 6.255,-3.436l0.683,-0.227v-7.011l-1.096,0.105c-0.296,0.03 -7.294,0.775 -12.685,7.514zM57,28.341c-3.699,1.399 -6.524,3.792 -6.649,3.898l-0.409,0.35l0.562,4.494c-1.718,-2.68 -2.853,-4.934 -3.33,-5.934c3.568,-4.185 7.851,-5.626 9.827,-6.092v3.284z" fill="url(#color-6)"></path><path d="M9.362,55l-5.362,-4.469v2.605l4.638,3.864h50.362v-2z" fill="url(#color-7)"></path></g></g></svg>